# xmcd
#
# Track frame offsets:
#	150
#	11883
#	27888
#	38333
#	48610
#	55776
#	70208
#	85630
#	99758
#	111901
#	129157
#	152548
#	168080
#	183720
#	199972
#	213669
#	232521
#	250240
#	262765
#	289676
#
# Disc length: 4006 seconds
#
# Revision: 1
# Processed by: cddbd v1.5.1PL2 Copyright (c) Steve Scherf et al.
# Submitted via: audiograbber 1.83.01
#
DISCID=fd0fa414
DTITLE=Sunday Skifflers - Best off... Vol 2
DYEAR=2006
DGENRE=Country
TTITLE0=Falling in Love To The Night
TTITLE1=Evangelina
TTITLE2=Ring Of Fire
TTITLE3=Heartbreak Hotel
TTITLE4=Nyffis Cajun
TTITLE5=Boney Fingers
TTITLE6=Fly, Eagle Fly
TTITLE7=Irene
TTITLE8=Sisters Coming Home
TTITLE9=Yakety Sax
TTITLE10=Blues Train
TTITLE11=Walking The Dog
TTITLE12=I Wish You Where Here
TTITLE13=Mule Skinner Blues
TTITLE14=Alphorn Skiffle
TTITLE15=Don`t Know Why I Love You
TTITLE16=Don`t Blame Me
TTITLE17=Dancin` Square
TTITLE18=Jackle Jack
TTITLE19=Sing ä chli Country
EXTD=
EXTT0=
EXTT1=
EXTT2=
EXTT3=
EXTT4=
EXTT5=
EXTT6=
EXTT7=
EXTT8=
EXTT9=
EXTT10=
EXTT11=
EXTT12=
EXTT13=
EXTT14=
EXTT15=
EXTT16=
EXTT17=
EXTT18=
EXTT19=
PLAYORDER=
